<?xml version="1.0" encoding="utf-8"?>
<!-- Generator: Adobe Illustrator 16.2.0, SVG Export Plug-In . SVG Version: 6.00 Build 0)  -->
<!DOCTYPE svg PUBLIC "-//W3C//DTD SVG 1.1//EN" "http://www.w3.org/Graphics/SVG/1.1/DTD/svg11.dtd">
<svg version="1.1" id="Layer_1" xmlns="http://www.w3.org/2000/svg" xmlns:xlink="http://www.w3.org/1999/xlink" x="0px" y="0px"
	 width="230px" height="40.5px" viewBox="0 0 230 40.5" enable-background="new 0 0 230 40.5" xml:space="preserve">
<g>
	<path d="M8.258,10.033H4.795V6.5h3.463V10.033z M8.258,33.922H4.795v-19.02h3.463V33.922z"/>
	<path d="M16.678,14.902l0.246,2.83c0.633-1.008,1.427-1.79,2.382-2.347s2.042-0.835,3.261-0.835c2.051,0,3.639,0.601,4.764,1.802
		s1.688,3.056,1.688,5.563v12.006h-3.463V21.986c0-1.676-0.331-2.865-0.993-3.568s-1.673-1.055-3.032-1.055
		c-1.066,0-1.972,0.214-2.716,0.642s-1.333,1.028-1.767,1.802v14.115h-3.463v-19.02H16.678z"/>
	<path fill="#FF0030" d="M47.229,27.242c0-0.984-0.343-1.775-1.028-2.373s-1.89-1.16-3.612-1.688
		c-2.953-0.891-5.194-1.939-6.724-3.146s-2.294-2.854-2.294-4.939c0-2.098,0.861-3.812,2.584-5.142s3.92-1.995,6.592-1.995
		c2.836,0,5.118,0.715,6.847,2.145s2.563,3.305,2.505,5.625l-0.035,0.105h-4.975c0-1.277-0.387-2.259-1.16-2.944
		s-1.857-1.028-3.252-1.028c-1.266,0-2.244,0.305-2.936,0.914s-1.037,1.389-1.037,2.338c0,0.867,0.375,1.579,1.125,2.136
		s2.045,1.146,3.885,1.767c2.813,0.797,4.957,1.837,6.434,3.12s2.215,2.974,2.215,5.071c0,2.191-0.855,3.92-2.566,5.186
		s-3.973,1.898-6.785,1.898c-2.754,0-5.118-0.686-7.093-2.057s-2.933-3.416-2.874-6.135l0.035-0.105h4.975
		c0,1.512,0.445,2.625,1.336,3.34s2.098,1.072,3.621,1.072c1.371,0,2.417-0.287,3.138-0.861S47.229,28.203,47.229,27.242z"/>
	<path fill="#FF0030" d="M73.982,12.283H66.67v21.639h-5.133V12.283H54.33V8.328h19.652V12.283z"/>
	<path fill="#FF0030" d="M86.111,20.123h0.105l5.59-11.795h5.625L88.66,24.922v9h-5.133v-9.264l-8.631-16.33h5.625L86.111,20.123z"
		/>
	<path fill="#FF0030" d="M105.113,29.984h11.461v3.938H99.98V8.328h5.133V29.984z"/>
	<path fill="#FF0030" d="M134.609,22.672h-9.492v7.313h11.285v3.938h-16.418V8.328h16.383v3.955h-11.25v6.434h9.492V22.672z"/>
	<path d="M146.51,28.314l0.299,1.336h0.105l0.334-1.336l4.377-13.412h3.533l-6.996,19.02h-2.619l-7.084-19.02h3.551L146.51,28.314z"
		/>
	<path d="M165.916,34.291c-2.73,0-4.86-0.873-6.39-2.619s-2.294-4.043-2.294-6.891v-0.773c0-2.73,0.788-4.989,2.364-6.776
		s3.501-2.681,5.774-2.681c2.543,0,4.45,0.791,5.722,2.373S173,20.609,173,23.234v1.828h-12.164l-0.053,0.088
		c0,1.91,0.422,3.46,1.266,4.649s2.133,1.784,3.867,1.784c1.172,0,2.2-0.167,3.085-0.501s1.644-0.794,2.276-1.38l1.354,2.25
		c-0.68,0.656-1.576,1.21-2.689,1.661S167.486,34.291,165.916,34.291z M165.371,17.275c-1.207,0-2.206,0.466-2.997,1.397
		s-1.274,2.124-1.45,3.577l0.035,0.088h8.578v-0.281c0-1.383-0.34-2.525-1.02-3.428S166.789,17.275,165.371,17.275z"/>
	<path d="M179.979,14.902l0.246,2.83c0.633-1.008,1.427-1.79,2.382-2.347s2.042-0.835,3.261-0.835c2.051,0,3.639,0.601,4.764,1.802
		s1.688,3.056,1.688,5.563v12.006h-3.463V21.986c0-1.676-0.331-2.865-0.993-3.568s-1.673-1.055-3.032-1.055
		c-1.066,0-1.972,0.214-2.716,0.642s-1.333,1.028-1.767,1.802v14.115h-3.463v-19.02H179.979z"/>
	<path d="M202.162,10.314v4.588h3.604v2.566h-3.604v11.549c0,0.891,0.185,1.518,0.554,1.881s0.858,0.545,1.468,0.545
		c0.199,0,0.422-0.026,0.668-0.079s0.451-0.108,0.615-0.167l0.475,2.373c-0.258,0.211-0.639,0.384-1.143,0.519
		s-1.002,0.202-1.494,0.202c-1.406,0-2.525-0.425-3.357-1.274s-1.248-2.183-1.248-3.999V17.469h-3.023v-2.566h3.023v-4.588H202.162z
		"/>
	<path d="M220.531,28.807c0-0.762-0.29-1.383-0.87-1.863s-1.679-0.902-3.296-1.266c-2.238-0.48-3.958-1.154-5.159-2.021
		s-1.802-2.027-1.802-3.48c0-1.547,0.659-2.871,1.978-3.973s3.026-1.652,5.124-1.652c2.156,0,3.902,0.586,5.238,1.758
		s1.975,2.537,1.916,4.096l-0.035,0.105h-3.305c0-0.82-0.36-1.564-1.081-2.232s-1.632-1.002-2.733-1.002
		c-1.219,0-2.13,0.275-2.733,0.826s-0.905,1.207-0.905,1.969c0,0.75,0.261,1.33,0.782,1.74s1.597,0.785,3.226,1.125
		c2.332,0.492,4.102,1.189,5.309,2.092s1.811,2.08,1.811,3.533c0,1.688-0.683,3.064-2.048,4.131s-3.149,1.6-5.353,1.6
		c-2.426,0-4.336-0.615-5.73-1.846s-2.057-2.666-1.986-4.307l0.035-0.105h3.305c0.059,1.23,0.516,2.13,1.371,2.698
		s1.857,0.853,3.006,0.853c1.23,0,2.194-0.261,2.892-0.782S220.531,29.615,220.531,28.807z"/>
</g>
</svg>
